<svg width="459" height="144" viewBox="0 0 459 144" fill="none" xmlns="http://www.w3.org/2000/svg">
<g clip-path="url(#clip0_5_2)">
<path d="M79.0532 78.2C78.4157 76.6875 77.6688 75.2375 76.8063 73.8531V48.725C76.8219 41.6469 73.9907 34.8406 68.9594 29.8281C63.9626 24.8 57.1594 21.9813 50.0626 22C42.9626 21.9844 36.1626 24.8 31.1501 29.8281C26.1219 34.825 23.3032 41.6438 23.3219 48.725V52.3875H34.0313V48.725C34.0313 44.4625 35.6907 40.425 38.7344 37.3969C41.7313 34.3875 45.8126 32.6938 50.0626 32.7094C58.9001 32.725 66.0751 39.8875 66.0907 48.725V63.3594C61.2251 60.4594 55.6563 58.9313 49.9938 58.9469C41.6282 58.9313 33.6032 62.25 27.6938 68.175C21.7719 74.0844 18.4532 82.1094 18.4688 90.475C18.4532 98.825 21.7719 106.847 27.6938 112.753C33.6032 118.678 41.6282 122.016 49.9938 122.016C58.3594 122.016 66.3844 118.694 72.2938 112.769C78.2157 106.859 81.5344 98.8344 81.5188 90.4719C81.5188 86.2219 80.6907 82.0875 79.0469 78.1969L79.0532 78.2ZM50.0001 111.291C38.5251 111.291 29.1844 101.95 29.1844 90.475C29.1844 79 38.5251 69.6594 50.0001 69.6594C61.4751 69.6594 70.8157 78.9844 70.8157 90.475C70.8157 101.95 61.4751 111.291 50.0001 111.291ZM58.9376 90.5719C58.9376 102.338 41.2751 102.338 41.2751 90.5719C41.2751 78.7875 58.9376 78.7875 58.9376 90.5719Z" fill="#E5E5E5"/>
</g>
<path d="M157.712 93.232H131.024L126.608 106H112.496L136.592 38.896H152.24L176.336 106H162.128L157.712 93.232ZM154.064 82.48L144.368 54.448L134.672 82.48H154.064ZM181.887 79.408C181.887 73.904 183.007 69.104 185.247 65.008C187.487 60.848 190.591 57.648 194.559 55.408C198.527 53.104 203.071 51.952 208.191 51.952C214.783 51.952 220.223 53.616 224.511 56.944C228.863 60.208 231.775 64.816 233.247 70.768H218.751C217.983 68.464 216.671 66.672 214.815 65.392C213.023 64.048 210.783 63.376 208.095 63.376C204.255 63.376 201.215 64.784 198.975 67.6C196.735 70.352 195.615 74.288 195.615 79.408C195.615 84.464 196.735 88.4 198.975 91.216C201.215 93.968 204.255 95.344 208.095 95.344C213.535 95.344 217.087 92.912 218.751 88.048H233.247C231.775 93.808 228.863 98.384 224.511 101.776C220.159 105.168 214.719 106.864 208.191 106.864C203.071 106.864 198.527 105.744 194.559 103.504C190.591 101.2 187.487 98 185.247 93.904C183.007 89.744 181.887 84.912 181.887 79.408ZM239.637 79.408C239.637 73.904 240.757 69.104 242.997 65.008C245.237 60.848 248.341 57.648 252.309 55.408C256.277 53.104 260.821 51.952 265.941 51.952C272.533 51.952 277.973 53.616 282.261 56.944C286.613 60.208 289.525 64.816 290.997 70.768H276.501C275.733 68.464 274.421 66.672 272.565 65.392C270.773 64.048 268.533 63.376 265.845 63.376C262.005 63.376 258.965 64.784 256.725 67.6C254.485 70.352 253.365 74.288 253.365 79.408C253.365 84.464 254.485 88.4 256.725 91.216C258.965 93.968 262.005 95.344 265.845 95.344C271.285 95.344 274.837 92.912 276.501 88.048H290.997C289.525 93.808 286.613 98.384 282.261 101.776C277.909 105.168 272.469 106.864 265.941 106.864C260.821 106.864 256.277 105.744 252.309 103.504C248.341 101.2 245.237 98 242.997 93.904C240.757 89.744 239.637 84.912 239.637 79.408ZM350.283 78.256C350.283 80.176 350.155 81.904 349.899 83.44H311.019C311.339 87.28 312.683 90.288 315.051 92.464C317.419 94.64 320.331 95.728 323.787 95.728C328.779 95.728 332.331 93.584 334.443 89.296H348.939C347.403 94.416 344.459 98.64 340.107 101.968C335.755 105.232 330.411 106.864 324.075 106.864C318.955 106.864 314.347 105.744 310.251 103.504C306.219 101.2 303.051 97.968 300.747 93.808C298.507 89.648 297.387 84.848 297.387 79.408C297.387 73.904 298.507 69.072 300.747 64.912C302.987 60.752 306.123 57.552 310.155 55.312C314.187 53.072 318.827 51.952 324.075 51.952C329.131 51.952 333.643 53.04 337.611 55.216C341.643 57.392 344.747 60.496 346.923 64.528C349.163 68.496 350.283 73.072 350.283 78.256ZM336.363 74.416C336.299 70.96 335.051 68.208 332.619 66.16C330.187 64.048 327.211 62.992 323.691 62.992C320.363 62.992 317.547 64.016 315.243 66.064C313.003 68.048 311.627 70.832 311.115 74.416H336.363ZM380.445 106.864C376.093 106.864 372.189 106.096 368.733 104.56C365.277 102.96 362.525 100.816 360.477 98.128C358.493 95.44 357.405 92.464 357.213 89.2H370.749C371.005 91.248 371.997 92.944 373.725 94.288C375.517 95.632 377.725 96.304 380.349 96.304C382.909 96.304 384.893 95.792 386.301 94.768C387.773 93.744 388.509 92.432 388.509 90.832C388.509 89.104 387.613 87.824 385.821 86.992C384.093 86.096 381.309 85.136 377.469 84.112C373.501 83.152 370.237 82.16 367.677 81.136C365.181 80.112 363.005 78.544 361.149 76.432C359.357 74.32 358.461 71.472 358.461 67.888C358.461 64.944 359.293 62.256 360.957 59.824C362.685 57.392 365.117 55.472 368.253 54.064C371.453 52.656 375.197 51.952 379.485 51.952C385.821 51.952 390.877 53.552 394.653 56.752C398.429 59.888 400.509 64.144 400.893 69.52H388.029C387.837 67.408 386.941 65.744 385.341 64.528C383.805 63.248 381.725 62.608 379.101 62.608C376.669 62.608 374.781 63.056 373.437 63.952C372.157 64.848 371.517 66.096 371.517 67.696C371.517 69.488 372.413 70.864 374.205 71.824C375.997 72.72 378.781 73.648 382.557 74.608C386.397 75.568 389.565 76.56 392.061 77.584C394.557 78.608 396.701 80.208 398.493 82.384C400.349 84.496 401.309 87.312 401.373 90.832C401.373 93.904 400.509 96.656 398.781 99.088C397.117 101.52 394.685 103.44 391.485 104.848C388.349 106.192 384.669 106.864 380.445 106.864ZM432.757 106.864C428.405 106.864 424.501 106.096 421.045 104.56C417.589 102.96 414.837 100.816 412.789 98.128C410.805 95.44 409.717 92.464 409.525 89.2H423.061C423.317 91.248 424.309 92.944 426.037 94.288C427.829 95.632 430.037 96.304 432.661 96.304C435.221 96.304 437.205 95.792 438.613 94.768C440.085 93.744 440.821 92.432 440.821 90.832C440.821 89.104 439.925 87.824 438.133 86.992C436.405 86.096 433.621 85.136 429.781 84.112C425.813 83.152 422.549 82.16 419.989 81.136C417.493 80.112 415.317 78.544 413.461 76.432C411.669 74.32 410.773 71.472 410.773 67.888C410.773 64.944 411.605 62.256 413.269 59.824C414.997 57.392 417.429 55.472 420.565 54.064C423.765 52.656 427.509 51.952 431.797 51.952C438.133 51.952 443.189 53.552 446.965 56.752C450.741 59.888 452.821 64.144 453.205 69.52H440.341C440.149 67.408 439.253 65.744 437.653 64.528C436.117 63.248 434.037 62.608 431.413 62.608C428.981 62.608 427.093 63.056 425.749 63.952C424.469 64.848 423.829 66.096 423.829 67.696C423.829 69.488 424.725 70.864 426.517 71.824C428.309 72.72 431.093 73.648 434.869 74.608C438.709 75.568 441.877 76.56 444.373 77.584C446.869 78.608 449.013 80.208 450.805 82.384C452.661 84.496 453.621 87.312 453.685 90.832C453.685 93.904 452.821 96.656 451.093 99.088C449.429 101.52 446.997 103.44 443.797 104.848C440.661 106.192 436.981 106.864 432.757 106.864Z" fill="#E5E5E5"/>
<defs>
<clipPath id="clip0_5_2">
<rect width="100" height="100" fill="white" transform="translate(0 22)"/>
</clipPath>
</defs>
</svg>
