<svg width="330" height="144" viewBox="0 0 330 144" fill="none" xmlns="http://www.w3.org/2000/svg">
<g clip-path="url(#clip0_5_2)">
<path d="M79.0532 78.2C78.4157 76.6875 77.6688 75.2375 76.8063 73.8531V48.725C76.8219 41.6469 73.9907 34.8406 68.9594 29.8281C63.9626 24.8 57.1594 21.9813 50.0626 22C42.9626 21.9844 36.1626 24.8 31.1501 29.8281C26.1219 34.825 23.3032 41.6438 23.3219 48.725V52.3875H34.0313V48.725C34.0313 44.4625 35.6907 40.425 38.7344 37.3969C41.7313 34.3875 45.8126 32.6938 50.0626 32.7094C58.9001 32.725 66.0751 39.8875 66.0907 48.725V63.3594C61.2251 60.4594 55.6563 58.9313 49.9938 58.9469C41.6282 58.9313 33.6032 62.25 27.6938 68.175C21.7719 74.0844 18.4532 82.1094 18.4688 90.475C18.4532 98.825 21.7719 106.847 27.6938 112.753C33.6032 118.678 41.6282 122.016 49.9938 122.016C58.3594 122.016 66.3844 118.694 72.2938 112.769C78.2157 106.859 81.5344 98.8344 81.5188 90.4719C81.5188 86.2219 80.6907 82.0875 79.0469 78.1969L79.0532 78.2ZM50.0001 111.291C38.5251 111.291 29.1844 101.95 29.1844 90.475C29.1844 79 38.5251 69.6594 50.0001 69.6594C61.4751 69.6594 70.8157 78.9844 70.8157 90.475C70.8157 101.95 61.4751 111.291 50.0001 111.291ZM58.9376 90.5719C58.9376 102.338 41.2751 102.338 41.2751 90.5719C41.2751 78.7875 58.9376 78.7875 58.9376 90.5719Z" fill="#F5F5F5"/>
</g>
<path d="M130.064 95.344H152.144V106H116.624V38.992H130.064V95.344ZM184.303 106.864C179.183 106.864 174.575 105.744 170.479 103.504C166.383 101.2 163.151 97.968 160.783 93.808C158.479 89.648 157.327 84.848 157.327 79.408C157.327 73.968 158.511 69.168 160.879 65.008C163.311 60.848 166.607 57.648 170.767 55.408C174.927 53.104 179.567 51.952 184.687 51.952C189.807 51.952 194.447 53.104 198.607 55.408C202.767 57.648 206.031 60.848 208.399 65.008C210.831 69.168 212.047 73.968 212.047 79.408C212.047 84.848 210.799 89.648 208.302 93.808C205.871 97.968 202.543 101.2 198.319 103.504C194.159 105.744 189.487 106.864 184.303 106.864ZM184.303 95.152C186.735 95.152 189.007 94.576 191.119 93.424C193.295 92.208 195.023 90.416 196.303 88.048C197.583 85.68 198.223 82.8 198.223 79.408C198.223 74.352 196.879 70.48 194.191 67.792C191.567 65.04 188.335 63.664 184.495 63.664C180.655 63.664 177.423 65.04 174.799 67.792C172.239 70.48 170.959 74.352 170.959 79.408C170.959 84.464 172.207 88.368 174.703 91.12C177.263 93.808 180.463 95.152 184.303 95.152ZM218.449 79.408C218.449 73.904 219.569 69.104 221.809 65.008C224.049 60.848 227.153 57.648 231.121 55.408C235.089 53.104 239.633 51.952 244.753 51.952C251.345 51.952 256.785 53.616 261.073 56.944C265.425 60.208 268.337 64.816 269.809 70.768H255.313C254.545 68.464 253.233 66.672 251.377 65.392C249.585 64.048 247.345 63.376 244.657 63.376C240.817 63.376 237.777 64.784 235.537 67.6C233.297 70.352 232.177 74.288 232.177 79.408C232.177 84.464 233.297 88.4 235.537 91.216C237.777 93.968 240.817 95.344 244.657 95.344C250.097 95.344 253.649 92.912 255.313 88.048H269.809C268.337 93.808 265.425 98.384 261.073 101.776C256.721 105.168 251.281 106.864 244.753 106.864C239.633 106.864 235.089 105.744 231.121 103.504C227.153 101.2 224.049 98 221.809 93.904C219.569 89.744 218.449 84.912 218.449 79.408ZM311.143 106L293.095 83.344V106H279.655V34.96H293.095V75.376L310.951 52.816H328.423L304.999 79.504L328.615 106H311.143Z" fill="#F5F5F5"/>
<defs>
<clipPath id="clip0_5_2">
<rect width="100" height="100" fill="white" transform="translate(0 22)"/>
</clipPath>
</defs>
</svg>
